<?xml version="1.0" encoding="UTF-8" standalone="no"?>
<svg
   height="133.95311mm"
   viewBox="0 0 133.95311 133.95311"
   width="133.95311mm"
   version="1.1"
   id="svg3"
   sodipodi:docname="graphowls-logo.svg"
   inkscape:version="1.4 (e7c3feb100, 2024-10-09)"
   inkscape:export-filename="graphowls-rounded-logo-green.png"
   inkscape:export-xdpi="96"
   inkscape:export-ydpi="96"
   xml:space="preserve"
   xmlns:inkscape="http://www.inkscape.org/namespaces/inkscape"
   xmlns:sodipodi="http://sodipodi.sourceforge.net/DTD/sodipodi-0.dtd"
   xmlns="http://www.w3.org/2000/svg"
   xmlns:svg="http://www.w3.org/2000/svg"><defs
     id="defs3" /><sodipodi:namedview
     id="namedview3"
     pagecolor="#ffffff"
     bordercolor="#000000"
     borderopacity="0.25"
     inkscape:showpageshadow="2"
     inkscape:pageopacity="0.0"
     inkscape:pagecheckerboard="0"
     inkscape:deskcolor="#d1d1d1"
     inkscape:document-units="mm"
     inkscape:zoom="0.32053643"
     inkscape:cx="385.29162"
     inkscape:cy="301.05782"
     inkscape:window-width="1350"
     inkscape:window-height="696"
     inkscape:window-x="6"
     inkscape:window-y="34"
     inkscape:window-maximized="1"
     inkscape:current-layer="svg3" /><g
     id="g1"><rect
       fill="#fafafa"
       height="133.95311"
       ry="0"
       stroke-width="5.62531"
       width="133.95311"
       x="9.8870362e-07"
       y="0"
       id="rect3" /><ellipse
       cx="59.074577"
       cy="83.063026"
       fill="#2b16b5"
       rx="9.3488426"
       ry="6.6125317"
       stroke-width="2.45679"
       transform="matrix(0.84600327,-0.53317771,0.46753874,0.88397258,0,0)"
       id="ellipse4"
       style="fill:#1d1db8;fill-opacity:1" /><ellipse
       cx="62.75745"
       cy="-0.34310633"
       fill="#2b16b5"
       rx="9.3488426"
       ry="6.6125317"
       stroke-width="2.45679"
       transform="matrix(0.73397188,0.67917986,-0.73284403,0.68039667,0,0)"
       id="ellipse5"
       style="fill:#1d1db8;fill-opacity:1" /><path
       d="m 66.977014,7.0852494 c -1.15658,0 -1.44498,0.1191483 -3.54244,1.462938 -1.2558,0.8045728 -4.14018,2.3617646 -6.40972,3.4606066 -13.18341,6.383044 -22.88107,8.679624 -36.65611,8.680143 -4.86998,1.9e-4 -5.08798,0.01931 -5.81641,0.515066 -0.41625,0.283289 -0.97244,0.806236 -1.23581,1.162035 -0.46219,0.624353 -0.47824,0.895684 -0.47216,7.783251 0.009,9.068159 0.66523,16.809624 2.18813,25.793186 3.50523,20.676936 12.93178,39.021815 27.57805,53.668095 6.84264,6.84265 16.0578,13.74136 22.37639,16.75177 1.81335,0.86395 2.79777,0.6884 5.92776,-1.05652 10.88014,-6.06554 22.03944,-16.0005 29.950806,-26.665494 9.21175,-12.417909 15.40605,-27.065985 18.05603,-42.697851 1.51295,-8.924969 2.1763,-16.700514 2.18676,-25.638938 0.009,-6.638875 -0.0158,-7.02125 -0.46231,-7.782346 -0.25861,-0.440243 -0.81435,-1.032574 -1.23536,-1.316287 -0.73677,-0.496485 -0.95532,-0.515777 -5.82537,-0.515967 -13.774996,-5.19e-4 -23.472676,-2.297099 -36.656086,-8.680143 -2.26954,-1.098842 -5.15392,-2.6560338 -6.40971,-3.4606066 -2.09748,-1.343781 -2.38587,-1.462938 -3.54244,-1.462938 z m 0,7.5373396 1.77411,0.989444 c 7.31951,4.082169 18.15385,8.4216 24.66603,9.87929 1.25905,0.281827 2.37132,0.588452 2.47162,0.681389 0.10019,0.09296 -1.49643,1.003524 -3.54827,2.023612 -6.14316,3.05414 -10.09063,5.894473 -15.49136,11.147276 -3.3542,3.262338 -5.90125,6.185511 -8.22994,9.445151 -0.83197,1.16463 -1.57099,2.117506 -1.64219,2.117506 -0.0712,0 -0.81022,-0.952876 -1.64222,-2.117506 -2.32872,-3.25964 -4.87574,-6.182813 -8.2299,-9.445151 -5.40079,-5.252803 -9.34822,-8.093136 -15.49142,-11.147276 -2.0518,-1.020088 -3.64851,-1.930673 -3.54821,-2.023612 0.10036,-0.09295 1.21253,-0.399562 2.4716,-0.681389 6.51214,-1.45769 17.34655,-5.797121 24.66601,-9.87929 z m -46.0476,14.022187 c 0.40875,-0.408751 12.26216,3.044548 13.0126,3.791019 0.21106,0.209947 0.16875,0.577746 -0.1869,1.624795 -1.19346,3.513049 -0.91052,7.873462 0.72522,11.17634 2.66798,5.387132 7.84047,8.645253 13.72532,8.645253 3.10835,0 6.4598,-1.032568 8.62648,-2.658045 0.40081,-0.300675 0.87616,-0.546807 1.05653,-0.546807 0.56054,0 5.88348,8.021791 5.88348,8.866584 0,0.462401 1.81613,1.869104 2.60397,2.016906 1.035,0.194173 2.20873,-0.202161 2.92718,-0.988117 0.31384,-0.34332 1.11564,-1.602771 1.78172,-2.798881 1.5933,-2.861105 4.5658,-7.096492 4.98034,-7.096492 0.18038,0 0.65573,0.246132 1.05652,0.546807 2.16667,1.625477 5.51811,2.658045 8.6265,2.658045 5.88482,0 11.05731,-3.258121 13.72527,-8.645253 1.635756,-3.302878 1.918696,-7.663291 0.725226,-11.17634 -0.355676,-1.047049 -0.397926,-1.414848 -0.18688,-1.624795 0.75043,-0.746471 12.60385,-4.19977 13.01259,-3.791019 0.0999,0.0998 -0.17899,1.395494 -0.61966,2.879364 -2.51995,8.485165 -7.02255,17.152182 -12.38804,23.84602 -8.081086,10.081864 -17.397436,17.463493 -29.489816,21.415097 -1.13724,0.371638 -2.18701,0.671868 -2.33301,0.667547 -0.48421,-0.01397 -5.26575,-1.72503 -7.59102,-2.715713 -16.23129,-6.915597 -30.43883,-20.446675 -37.07682,-37.495344 -1.43437,-3.683914 -2.84379,-8.349979 -2.5968,-8.596971 z m 19.11742,9.15854 12.82707,7.405888 c -0.0633,0.22815 -0.54364,0.601953 -1.2537,0.957258 -1.42766,0.714364 -3.81279,0.990282 -5.30402,0.613877 -2.34932,-0.592969 -4.76783,-2.606933 -5.69439,-4.742465 -0.50623,-1.166839 -0.67895,-2.858836 -0.57496,-4.234558 z m 53.87198,0.168115 c 0.0749,1.346932 -0.10231,2.949843 -0.58974,4.07361 -0.69144,1.593797 -2.51653,3.418083 -4.1545,4.153171 -1.63953,0.735769 -3.96188,0.954944 -5.50035,0.518637 -1.19042,-0.337593 -2.25512,-0.925325 -2.5391,-1.364574 z m 18.706076,11.218377 c 0.22738,-0.04522 0.12021,1.444835 -0.31073,4.234549 -1.30953,8.478526 -3.84589,17.059311 -7.22436,24.441141 -0.9722,2.124149 -0.76746,2.003767 -4.00385,2.357152 -2.133096,0.232898 -14.899156,0.488938 -16.024346,0.321469 -0.31476,-0.04697 -1.47368,-0.150813 -2.57534,-0.231161 -1.10168,-0.0804 -2.00303,-0.230611 -2.00303,-0.333996 0,-0.103342 0.98907,-0.716398 2.19798,-1.362339 11.40957,-6.096268 21.108516,-15.228382 27.971936,-26.336862 0.89458,-1.447907 1.72879,-2.787078 1.85371,-2.975944 0.0463,-0.06984 0.0854,-0.107566 0.11793,-0.114061 z m -91.287266,0.0088 c 0.0309,0.007 0.0677,0.04129 0.1095,0.105096 0.12497,0.188866 0.95912,1.528054 1.85369,2.975944 10.6134,17.177773 28.37863,28.825776 48.22994,33.193705 7.34078,1.61522 11.66857,2.121984 21.12314,2.020485 3.86109,-0.04147 7.08669,-0.0087 7.16759,0.07185 0.328396,0.328426 -6.14344,9.337715 -8.85496,12.326753 l -1.0404,1.146829 -1.45938,-0.0411 c -13.15388,-0.37189 -27.6975,-5.040717 -39.0821,-12.545827 -4.73194,-3.119433 -7.62442,-5.484127 -11.7339,-9.593586 -5.6182,-5.618189 -9.29696,-10.604352 -12.61291,-17.094265 -2.32491,-4.550256 -3.1411,-6.669089 -3.52052,-9.141542 -0.33165,-2.161242 -0.39516,-3.472277 -0.17972,-3.424403 z m 10.23741,33.828132 c 0.0767,-0.07647 1.0423,0.732242 2.14658,1.796936 12.56365,12.113392 29.78691,20.369944 46.85731,22.462664 1.32544,0.16241 2.30777,0.39143 2.36073,0.5504 0.20455,0.61369 -8.2848,7.15154 -13.12216,10.10551 -1.27068,0.77594 -2.55833,1.40919 -2.8615,1.40661 -0.30317,-0.002 -1.68442,-0.70579 -3.06938,-1.56309 -10.88556,-6.73828 -20.42971,-15.99015 -27.78416,-26.933298 -2.30426,-3.428663 -4.73064,-7.622506 -4.52742,-7.825732 z"
       fill="#050505"
       stroke-width="0.865206"
       id="path5" /></g></svg>
